<svg id="projector-screen_1" width="27" height="27" viewBox="0 0 27 27" fill="none" xmlns="http://www.w3.org/2000/svg">
<g clip-path="url(#clip0)">
<path d="M26.3891 17.1041H25.7783V1.83258C25.7783 1.49526 25.5047 1.22172 25.1674 1.22172H14.1109V0.61086C14.1109 0.273543 13.8373 0 13.5 0C13.1627 0 12.8891 0.273543 12.8891 0.61086V1.22172H1.83258C1.49526 1.22172 1.22172 1.49526 1.22172 1.83258V17.1041H0.61086C0.273543 17.1041 0 17.3776 0 17.7149C0 18.0522 0.273543 18.3258 0.61086 18.3258H12.8891V21.1365L8.30543 25.9687C8.07324 26.2135 8.08345 26.6001 8.32822 26.8323C8.57293 27.0646 8.95966 27.0543 9.19179 26.8095L12.8891 22.9117V26.3891C12.8891 26.7265 13.1627 27 13.5 27C13.8373 27 14.1109 26.7265 14.1109 26.3891V22.9117L17.8082 26.8095C17.9283 26.9362 18.0897 27 18.2515 27C18.4025 27 18.5536 26.9444 18.6718 26.8323C18.9166 26.6001 18.9268 26.2135 18.6946 25.9687L14.1109 21.1365V18.3258H26.3891C26.7265 18.3258 27 18.0522 27 17.7149C27 17.3776 26.7265 17.1041 26.3891 17.1041ZM2.44344 2.44344H24.5566V17.1041H2.44344V2.44344Z" fill="white"/>
</g>
<defs>
<clipPath id="clip0">
<rect width="27" height="27" fill="white"/>
</clipPath>
</defs>
</svg>
